<svg width="100" height="85" viewBox="0 0 100 85" fill="none" xmlns="http://www.w3.org/2000/svg">
<rect x="1" y="1" width="98" height="83" rx="4" stroke="#011627" stroke-width="2"/>
<path d="M19.502 66V62.0449L33.4766 46.5176C35.1367 44.6621 36.4355 43.0801 37.373 41.7715C38.3105 40.4434 38.9648 39.2422 39.3359 38.168C39.707 37.0938 39.8926 35.9805 39.8926 34.8281C39.8926 32.6992 39.248 30.9121 37.959 29.4668C36.6699 28.002 34.8242 27.2695 32.4219 27.2695C29.9219 27.2695 27.9688 28.0215 26.5625 29.5254C25.1758 31.0293 24.4824 33.1582 24.4824 35.9121H18.9453L18.8867 35.7363C18.8281 33.2754 19.3457 31.0684 20.4395 29.1152C21.5332 27.1426 23.1152 25.5898 25.1855 24.457C27.2754 23.3047 29.7559 22.7285 32.627 22.7285C35.3223 22.7285 37.6367 23.2461 39.5703 24.2812C41.5234 25.2969 43.0273 26.6934 44.082 28.4707C45.1367 30.248 45.6641 32.2891 45.6641 34.5938C45.6641 36.1562 45.3516 37.709 44.7266 39.252C44.1211 40.7949 43.2227 42.377 42.0312 43.998C40.8594 45.6191 39.4434 47.3281 37.7832 49.125L26.5625 61.3418L26.6211 61.4883H41.7676L42.2363 56.5957H47.1289V66H19.502ZM67.8125 66.6152C65.0391 66.6152 62.5586 65.9414 60.3711 64.5938C58.2031 63.2266 56.4941 61.2441 55.2441 58.6465C53.9941 56.0488 53.3691 52.9043 53.3691 49.2129V43.4707C53.3691 38.959 54.043 35.1699 55.3906 32.1035C56.7578 29.0176 58.6328 26.6836 61.0156 25.1016C63.418 23.5195 66.1719 22.7285 69.2773 22.7285C70.7227 22.7285 72.1582 22.8945 73.584 23.2266C75.0293 23.5586 76.2207 23.9785 77.1582 24.4863L76.0449 28.793C75.127 28.3438 74.1211 27.9824 73.0273 27.709C71.9336 27.416 70.6836 27.2695 69.2773 27.2695C66.2891 27.2695 63.9062 28.4023 62.1289 30.668C60.3711 32.9141 59.4336 36.3125 59.3164 40.8633L59.4336 40.9805C60.5273 39.9648 61.8652 39.1641 63.4473 38.5781C65.0293 37.9727 66.7383 37.6699 68.5742 37.6699C71.1133 37.6699 73.3203 38.2754 75.1953 39.4863C77.0703 40.6777 78.5156 42.3281 79.5312 44.4375C80.5664 46.5469 81.084 48.9492 81.084 51.6445C81.084 54.5938 80.5371 57.1914 79.4434 59.4375C78.3496 61.6836 76.8066 63.4414 74.8145 64.7109C72.8223 65.9805 70.4883 66.6152 67.8125 66.6152ZM67.8125 62.1035C69.3945 62.1035 70.7422 61.6445 71.8555 60.7266C72.9688 59.8086 73.8184 58.5586 74.4043 56.9766C75.0098 55.3945 75.3125 53.6172 75.3125 51.6445C75.3125 48.832 74.5996 46.5176 73.1738 44.7012C71.7676 42.8848 69.8145 41.9766 67.3145 41.9766C66.0059 41.9766 64.8145 42.1621 63.7402 42.5332C62.6855 42.8848 61.7676 43.3926 60.9863 44.0566C60.2246 44.7012 59.5996 45.4629 59.1113 46.3418V49.7695C59.1113 53.7344 59.9316 56.7812 61.5723 58.9102C63.2324 61.0391 65.3125 62.1035 67.8125 62.1035Z" fill="#011627"/>
</svg>
